<svg xmlns="http://www.w3.org/2000/svg" viewBox="0 0 48 48" width="260" height="260">
  <path d="M42 20l-18-9.047L6 20v-5.047l18-9 18 9z" fill="#e53935"/>
  <path d="M9 21h30v19H9z" fill="#d32f2f"/>
  <path d="M20 38c0-2.207 1.785-4 4-4s4 1.793 4 4-1.785 4-4 4-4-1.793-4-4z" fill="#d32f2f"/>
  <path d="M22 38.004c0-1.106.895-2.004 2-2.004s2 .898 2 2.004A1.998 1.998 0 0 1 24 40c-1.105 0-2-.895-2-1.996z" fill="#4c0808"/>
  <path d="M36 19l-11 2h-2l-11-2-1 3.574V38h26V22.574z" fill="#bcaaa4"/>
  <path d="M37 19s-12-.145-12 2v17c0-2.145 12-2 12-2zM11 19s12-.145 12 2v17c0-2.145-12-2-12-2z" fill="#e5e2e1"/>
</svg>
