<svg xmlns="http://www.w3.org/2000/svg" viewBox="0 0 48 48" width="260" height="260">
  <defs>
    <style>
      .cls-1{fill:#203442}
    </style>
  </defs>
  <g id="Education">
    <path class="cls-1" d="M24.5 34C15.94 34 9 30.154 9 24V14h31v10c0 5.171-6.94 10-15.5 10z"/>
    <path d="M46.171 9.991L27.3.764a7.518 7.518 0 0 0-6.6 0L1.829 9.991a3.26 3.26 0 0 0 .15 5.927L4.5 17l16.543 7.079a7.517 7.517 0 0 0 5.914 0L43.5 17l2.521-1.078a3.26 3.26 0 0 0 .15-5.931z" fill="#4c5665"/>
    <path d="M40 38a1 1 0 0 1-1-1V19.361L24.918 12.14a1 1 0 1 1 .914-1.78L41 18.139V37a1 1 0 0 1-1 1z" fill="#ecf0f1"/>
    <ellipse class="cls-1" cx="24.5" cy="11" rx="4.5" ry="3"/>
    <circle cx="40" cy="39" r="4" fill="#face53"/>
  </g>
</svg>
