<svg xmlns="http://www.w3.org/2000/svg" viewBox="0 0 48 48" width="260" height="260">
  <path d="M16.696 7.2H44.87c1.734 0 3.13 1.606 3.13 3.6v33.6c0 1.994-1.396 3.6-3.13 3.6H25.043z" fill="#e6e7e8"/>
  <path d="M31.319 40.82L25.043 48l-1.473-7.198z" fill="#376ad7"/>
  <path d="M27.118 15.6a1.043 1.2 0 1 0 0 2.4h14.609a1.043 1.2 0 1 0 0-2.4z" style="line-height:normal;text-indent:0;text-align:start;text-decoration-line:none;text-decoration-style:solid;text-decoration-color:#000;text-transform:none;isolation:auto;mix-blend-mode:normal" font-weight="400" overflow="visible" color="#000" font-family="sans-serif" white-space="normal" fill="#5f7987" fill-rule="evenodd"/>
  <path d="M31.258 15.674a1.043 1.2 0 0 0-.96 1.29 18.789 21.607 0 0 0 9.878 17.678 1.043 1.2 0 1 0 .987-2.115 16.696 19.2 0 0 1-8.784-15.713 1.043 1.2 0 0 0-1.12-1.14z" style="line-height:normal;text-indent:0;text-align:start;text-decoration-line:none;text-decoration-style:solid;text-decoration-color:#000;text-transform:none;isolation:auto;mix-blend-mode:normal" font-weight="400" overflow="visible" color="#000" font-family="sans-serif" white-space="normal" fill="#5f7987"/>
  <path d="M37.58 15.66a1.043 1.2 0 0 0-1.092 1.145 16.694 19.198 0 0 1-7.346 14.729 1.044 1.2 0 0 0 1.167 1.992 18.785 21.602 0 0 0 8.262-16.57 1.043 1.2 0 0 0-.991-1.296z" style="line-height:normal;text-indent:0;text-align:start;text-decoration-line:none;text-decoration-style:solid;text-decoration-color:#000;text-transform:none;isolation:auto;mix-blend-mode:normal" font-weight="400" overflow="visible" color="#000" font-family="sans-serif" white-space="normal" fill="#5f7987"/>
  <path d="M34.418 10.8a1.043 1.2 0 0 0-1.027 1.22v4.8a1.043 1.2 0 1 0 2.087 0v-4.8a1.043 1.2 0 0 0-1.06-1.22z" style="line-height:normal;text-indent:0;text-align:start;text-decoration-line:none;text-decoration-style:solid;text-decoration-color:#000;text-transform:none;isolation:auto;mix-blend-mode:normal" font-weight="400" overflow="visible" color="#000" font-family="sans-serif" white-space="normal" fill="#5f7987" fill-rule="evenodd"/>
  <path d="M31.304 40.8H3.13C1.396 40.8 0 39.194 0 37.2V3.6C0 1.606 1.396 0 3.13 0h19.827z" fill="#518ff5"/>
  <path d="M10.662 6.06a6.253 7.19 0 0 0-3.61 2.045 6.273 7.214 0 0 0-.998 8.695 6.271 7.212 0 0 0 7.044 3.358 6.27 7.21 0 0 0 4.641-6.958V12h-6.26v2.4h3.818c-.39 1.603-1.285 2.988-2.74 3.437A4.166 4.79 0 0 1 7.862 15.6a4.17 4.795 0 0 1 .663-5.798 4.163 4.788 0 0 1 5.04-.759L14.61 6.96a6.246 7.183 0 0 0-3.947-.9z" style="line-height:normal;text-indent:0;text-align:start;text-decoration-line:none;text-decoration-style:solid;text-decoration-color:#000;text-transform:none;isolation:auto;mix-blend-mode:normal" font-weight="400" overflow="visible" color="#000" font-family="sans-serif" white-space="normal" fill="#f9f9f9"/>
</svg>
