<svg xmlns="http://www.w3.org/2000/svg" viewBox="0 0 48 48">
  <path fill="#3F5EAB" d="M351.703 499.986L256 445.672l-95.703 54.314V244.439h191.406z"/>
  <linearGradient gradientUnits="userSpaceOnUse" id="a" x1="126.276" x2="385.725" y1="325.196" y2="65.747">
    <stop offset="0" stop-color="#0ff"/>
    <stop offset="1" stop-color="#ff7bac"/>
  </linearGradient>
  <path d="M417.854 156.822l-14.332-4.204a152.62 152.62 0 0 0-12.913-31.146l7.169-13.119c6.276-11.488 1.231-29.32-12.054-42.605-13.285-13.286-31.117-18.331-42.605-12.054L330 60.862a152.62 152.62 0 0 0-31.146-12.913l-4.204-14.332c-3.685-12.562-19.862-21.604-38.65-21.604-18.789 0-34.965 9.042-38.65 21.604l-4.204 14.332A152.62 152.62 0 0 0 182 60.862l-13.119-7.168c-11.488-6.277-29.32-1.232-42.605 12.054-13.285 13.286-18.33 31.118-12.053 42.605l7.168 13.119a152.62 152.62 0 0 0-12.913 31.146l-14.332 4.204c-12.562 3.685-21.604 19.861-21.604 38.65 0 18.788 9.042 34.965 21.604 38.649l14.332 4.204a152.62 152.62 0 0 0 12.913 31.146l-7.168 13.119c-6.277 11.488-1.232 29.32 12.053 42.605v.001c13.286 13.285 31.118 18.33 42.605 12.054L182 330.081a152.676 152.676 0 0 0 31.146 12.913l4.204 14.332c3.685 12.562 19.861 21.604 38.65 21.604 18.788 0 34.965-9.042 38.649-21.604l4.204-14.332a152.652 152.652 0 0 0 31.146-12.913l13.119 7.169c11.488 6.276 29.32 1.231 42.605-12.054v-.001c13.285-13.285 18.33-31.117 12.054-42.605l-7.169-13.119a152.596 152.596 0 0 0 12.913-31.146l14.332-4.204c12.562-3.685 21.604-19.861 21.604-38.649.001-18.789-9.041-34.966-21.603-38.65z" fill="url(#a)"/>
  <linearGradient gradientUnits="userSpaceOnUse" id="b" x1="256" x2="256" y1="54.29" y2="336.654">
    <stop offset="0" stop-color="#fff"/>
    <stop offset=".328" stop-color="#fcfcfc"/>
    <stop offset=".53" stop-color="#f4f4f4"/>
    <stop offset=".698" stop-color="#e5e5e5"/>
    <stop offset=".848" stop-color="#d1d1d1"/>
    <stop offset=".984" stop-color="#b7b7b7"/>
    <stop offset="1" stop-color="#b3b3b3"/>
  </linearGradient>
  <path d="M380.557 165.729l-11.029-3.235a117.399 117.399 0 0 0-9.938-23.969l5.517-10.096c4.831-8.84.948-22.563-9.275-32.787-10.225-10.224-23.947-14.106-32.788-9.276l-10.096 5.517a117.428 117.428 0 0 0-23.969-9.937l-3.235-11.029C282.907 61.248 270.459 54.29 256 54.29s-26.908 6.958-29.743 16.625l-3.235 11.029a117.452 117.452 0 0 0-23.969 9.937l-10.096-5.517c-8.841-4.83-22.564-.948-32.788 9.276-10.224 10.224-14.106 23.947-9.276 32.787l5.516 10.096a117.485 117.485 0 0 0-9.937 23.969l-11.029 3.235c-9.667 2.835-16.625 15.284-16.625 29.743 0 14.459 6.958 26.908 16.625 29.743l11.029 3.235a117.508 117.508 0 0 0 9.937 23.969l-5.516 10.096c-4.831 8.841-.948 22.563 9.276 32.788 10.224 10.224 23.947 14.105 32.788 9.275l10.096-5.517a117.428 117.428 0 0 0 23.969 9.937l3.235 11.03c2.835 9.667 15.284 16.625 29.743 16.625s26.907-6.958 29.743-16.625l3.235-11.03a117.34 117.34 0 0 0 23.969-9.937l10.096 5.517c8.841 4.83 22.563.948 32.788-9.275 10.224-10.225 14.106-23.947 9.275-32.788l-5.517-10.096a117.488 117.488 0 0 0 9.938-23.969l11.029-3.235c9.667-2.835 16.625-15.284 16.625-29.743.001-14.457-6.957-26.906-16.624-29.741z" fill="url(#b)"/>
  <linearGradient gradientUnits="userSpaceOnUse" id="c" x1="188.328" x2="323.672" y1="263.144" y2="127.799">
    <stop offset="0" stop-color="#0ff"/>
    <stop offset="1" stop-color="#ff7bac"/>
  </linearGradient>
  <circle cx="256" cy="195.472" fill="url(#c)" r="95.703"/>
</svg>
