<svg viewBox="-28 0 511 512" width="260" height="260" xmlns="http://www.w3.org/2000/svg">
  <path d="M358.7 0c-38.4 0-61.802 24.3-75 45.898C270.5 24.301 247.097 0 208.7 0c-51.302 0-90 42.598-90 99.602 0 60.296 46.198 100.796 116.1 162.296 12.298 10.5 25.2 21.899 38.7 34.2 3 2.402 6.602 3.902 10.2 3.902 1.198 0 2.702-.3 3.902-.902 2.097-.301 4.199-1.5 6-3 13.796-12.301 26.699-23.7 38.699-34.2 70.199-61.5 116.398-102 116.398-162.296C448.7 42.598 410 0 358.7 0zm0 0" fill="#ff5b5b"/>
  <path d="M449.598 363.2L369.5 470c-19.2 25.5-49.2 41.098-81 42h-273c-8.402 0-15-6.602-15-15V377c0-8.402 6.598-15 15-15h24l41.7-36.602c40.8-36 103.5-34.796 143.1 4.2 2.102.902 3.602 1.5 5.7 2.402h40.5c6.598 0 12.598 2.102 17.402 5.7 7.5 5.402 12.598 14.398 12.598 24.3 0 9.898-4.8 18.602-12 24-5.102 3.602-11.402 6-18 6H194c-8.402 0-15 6.598-15 15 0 8.398 6.598 15 15 15h101.7c26.398 0 36-18 64.8-48.898l44.098-47.403c11.398-12 30.601-12.3 42.3-.601 10.2 10.203 11.403 26.703 2.7 38.101zm0 0" fill="#ffbd86"/>
  <path d="M288.5 386c0-15.902-.3-32.102-.602-48.3 7.5 5.402 12.602 14.398 12.602 24.3 0 9.898-4.8 18.602-12 24zm0 0" fill="#f6a96c"/>
  <path d="M293.602 296.102c-1.801 1.5-3.903 2.699-6 2.996-1.5-130.2-3.903-253.2-3.903-253.2C296.9 24.301 320.301 0 358.7 0c51.301 0 90 42.598 90 99.602 0 60.296-46.199 100.796-116.398 162.296-12 10.5-24.903 21.903-38.7 34.204zm0 0" fill="#ff001e"/>
  <path d="M449.598 363.2L369.5 470c-19.2 25.5-49.2 41.098-81 42 .3-26.398.602-57.3 0-90h7.203c26.399 0 35.996-18 64.797-48.898l44.102-47.403c11.398-12 30.597-12.3 42.3-.601 10.196 10.203 11.399 26.703 2.696 38.101zm0 0" fill="#f6a96c"/>
</svg>
